<?xml version="1.0" encoding="iso-8859-1"?>
<!-- Generator: Adobe Illustrator 19.0.0, SVG Export Plug-In . SVG Version: 6.00 Build 0)  -->
<svg version="1.1" id="Layer_1" xmlns="http://www.w3.org/2000/svg" xmlns:xlink="http://www.w3.org/1999/xlink" x="0px" y="0px"
	 viewBox="0 0 512 512" style="enable-background:new 0 0 512 512;" xml:space="preserve">
<path style="fill:#EA3F31;" d="M352.419,209.179l-21.057-91.278c-14.499-62.78-70.874-109.731-138-109.731l74.61,277.787h23.432
	c34.598,0,62.638-28.04,62.638-62.638C354.043,218.45,353.465,213.722,352.419,209.179z"/>
<path style="fill:#F16C60;" d="M314.412,209.179c0.795,4.543,1.231,9.27,1.231,14.14c0,34.598-21.341,62.638-47.67,62.638H95.319
	c-34.598,0-62.638-28.04-62.638-62.638c0-4.869,0.577-9.597,1.623-14.14l21.057-91.278c14.499-62.78,70.874-109.731,138-109.731
	c51.091,0,93.979,46.951,105.014,109.731L314.412,209.179z"/>
<path style="fill:#FFC5BF;" d="M251.131,57.42c-3.246,2.582-6.558,5.098-9.924,7.527l-47.845,221.01
	c60.165,0,108.936-48.771,108.936-108.936v-27.234C302.298,110.853,281.861,76.68,251.131,57.42z"/>
<path style="fill:#FFD8D4;" d="M269.617,149.787v27.234c0,60.165-34.141,108.936-76.255,108.936
	c-60.165,0-108.936-48.771-108.936-108.936v-27.234c0-11.417,1.754-22.43,5.011-32.768c56.592-1.972,108.838-20.992,151.77-52.071
	C258.527,84.916,269.617,115.505,269.617,149.787z"/>
<path style="fill:#708320;" d="M306.056,356.875h-30.491l70.307,146.955h32.681C378.553,443.958,350.143,390.721,306.056,356.875z"
	/>
<path style="fill:#8A9D29;" d="M297.352,368.357L80.667,356.875C36.581,390.721,8.17,443.958,8.17,503.83h337.702
	C345.872,450.353,327.201,402.16,297.352,368.357z"/>
<path style="fill:#3C4F0D;" d="M278.517,339.336h-26.918v29.021h45.753c3.094-3.671,6.002-7.495,8.704-11.482
	C297.439,350.252,288.234,344.38,278.517,339.336z"/>
<path style="fill:#566916;" d="M273.364,346.145l-165.158-6.809c-9.717,5.044-18.922,10.915-27.539,17.539
	c24.522,36.069,65.885,59.806,112.694,59.806c41.646,0,78.979-18.792,103.99-48.324C289.999,360.034,281.97,352.583,273.364,346.145
	z"/>
<path style="fill:#FFC5BF;" d="M195.333,318.649l78.031,27.495c1.819-2.201,3.53-4.466,5.153-6.809
	C253.571,326.395,225.302,318.965,195.333,318.649z"/>
<path style="fill:#FFD8D4;" d="M195.333,318.649c28.596,0.447,55.296,10.447,78.031,27.495C254.399,369.25,225.607,384,193.362,384
	c-35.306,0-66.484-17.68-85.155-44.664c25.491-13.225,54.457-20.698,85.155-20.698C194.015,318.638,194.68,318.638,195.333,318.649z
	"/>
<path style="fill:#C397DB;" d="M407.421,184.647V503.83c53.161,0,96.409-43.269,96.409-96.441V281.088
	C503.83,227.916,460.582,184.647,407.421,184.647z"/>
<path style="fill:#D6BAED;" d="M374.751,498.132c10.207,3.682,21.21,5.697,32.67,5.697c35.143,0,63.728-43.269,63.728-96.441
	V292.058h-96.398V498.132z"/>
<path style="fill:#E4D1F3;" d="M407.421,184.647c-53.161,0-96.409,43.269-96.409,96.441v126.301
	c0,41.712,26.613,77.323,63.739,90.744c37.115-13.432,63.717-49.021,63.717-90.711V281.088h32.681
	C471.149,227.916,442.564,184.647,407.421,184.647z"/>
<path style="fill:#FFC5BF;" d="M407.421,217.437v138.349c35.143,0,63.728-28.585,63.728-63.728v-10.894
	C471.149,246.032,442.564,217.437,407.421,217.437z"/>
<path style="fill:#FFD8D4;" d="M438.468,281.164v10.894c0,35.143-13.933,63.728-31.047,63.728
	c-35.143,0-63.728-28.585-63.728-63.728v-10.894c0-35.132,28.585-63.728,63.728-63.728
	C424.535,217.437,438.468,246.032,438.468,281.164z"/>
<path d="M172.664,155.234v-5.447c0-4.512-3.658-8.17-8.17-8.17h-21.787c-4.512,0-8.17,3.658-8.17,8.17s3.658,8.17,8.17,8.17h14.082
	c1.121,3.173,4.148,5.447,7.705,5.447C169.006,163.404,172.664,159.746,172.664,155.234z"/>
<path d="M244.017,141.617H222.23c-4.512,0-8.17,3.658-8.17,8.17v5.447c0,4.512,3.658,8.17,8.17,8.17
	c3.558,0,6.584-2.273,7.705-5.447h14.082c4.512,0,8.17-3.658,8.17-8.17S248.529,141.617,244.017,141.617z"/>
<path d="M214.073,191.11c-4.25-1.509-8.924,0.71-10.435,4.962c-1.543,4.338-5.672,7.252-10.276,7.252s-8.735-2.914-10.276-7.252
	c-1.512-4.252-6.184-6.471-10.435-4.962c-4.252,1.512-6.473,6.183-4.962,10.435c3.853,10.838,14.17,18.119,25.673,18.119
	s21.82-7.281,25.673-18.119C220.546,197.293,218.324,192.622,214.073,191.11z"/>
<circle cx="105.178" cy="462.979" r="8.17"/>
<circle cx="72.497" cy="430.298" r="8.17"/>
<path d="M407.421,176.477c-18.54,0-35.964,4.857-51.08,13.357l-17.021-73.767c-7.492-32.439-25.993-61.892-52.097-82.934
	C260.72,11.766,227.386,0,193.362,0S126.003,11.766,99.5,33.132c-26.104,21.042-44.605,50.496-52.098,82.936l-21.061,91.277
	c-1.216,5.265-1.831,10.64-1.831,15.974c0,39.044,31.765,70.809,70.809,70.809h196.085c3.852,0,7.673-0.312,11.438-0.924v51.235
	c-6.376-4.377-13.003-8.35-19.83-11.918c-0.468-0.308-0.955-0.563-1.456-0.765c-27.122-13.88-57.391-21.288-88.195-21.288
	c-31.69,0-61.622,7.664-88.043,21.233c-0.609,0.231-1.203,0.529-1.763,0.917c-0.021,0.014-0.038,0.031-0.058,0.045
	c-9.424,4.967-18.392,10.689-26.82,17.087c-0.204,0.114-0.406,0.233-0.602,0.367c-0.473,0.321-0.901,0.685-1.284,1.081
	C29.311,386.607,0,441.857,0,503.83c0,4.512,3.658,8.17,8.17,8.17s8.17-3.658,8.17-8.17c0-54.122,24.422-102.639,62.816-135.136
	c27.311,35.321,69.368,56.158,114.205,56.158c32.615,0,64.606-11.232,90.078-31.629c3.522-2.82,4.091-7.962,1.271-11.484
	c-2.819-3.522-7.962-4.091-11.484-1.271c-22.914,18.346-50.53,28.043-79.865,28.043c-39.746,0-77.035-18.473-101.264-49.793
	c4.465-3.125,9.078-6.052,13.829-8.764c21.121,26.56,53.275,42.216,87.434,42.216c34.173,0,66.341-15.668,87.461-42.249
	c7.676,4.356,15.04,9.297,22.02,14.794v42.674c0,45.357,29.009,84.058,69.44,98.531c11.005,3.935,22.825,6.081,35.138,6.081
	C465.087,512,512,465.071,512,407.387V281.089C512,223.405,465.087,176.477,407.421,176.477z M193.362,375.83
	c-28.04,0-54.496-12.362-72.522-33.474c22.145-9.985,46.695-15.547,72.522-15.547c25.127,0,49.861,5.393,72.517,15.554
	C247.853,363.47,221.399,375.83,193.362,375.83z M252.963,277.787c34.397-20.422,57.505-57.943,57.505-100.766v-27.234
	c0-40.585-20.558-77.703-54.993-99.289c-2.935-1.84-6.712-1.63-9.423,0.526c-45.075,35.826-99.326,55.822-156.89,57.829
	c-3.458,0.121-6.465,2.406-7.507,5.706c-3.583,11.351-5.4,23.203-5.4,35.228v27.234c0,42.823,23.109,80.344,57.505,100.766H95.319
	c-30.034,0-54.468-24.434-54.468-54.468c0-4.1,0.475-8.239,1.413-12.301l21.061-91.275C77.163,59.828,131.851,16.34,193.362,16.34
	s116.199,43.487,130.036,103.401l18.442,79.926c-22.667,18.305-37.563,45.865-38.893,76.886c-3.772,0.814-7.635,1.234-11.543,1.234
	h-38.44V277.787z M193.362,277.787c-55.563,0-100.766-45.203-100.766-100.766v-27.234c0-8.446,1.039-16.788,3.095-24.872
	c56.882-3.152,110.519-22.92,155.82-57.434c26.791,18.913,42.617,49.276,42.617,82.307v27.234
	C294.128,232.584,248.925,277.787,193.362,277.787z M495.66,407.387c0,48.674-39.583,88.272-88.238,88.272
	c-2.912,0-5.788-0.15-8.628-0.427c29.313-19.014,47.845-51.952,47.845-87.811v-27.044c0-4.512-3.658-8.17-8.17-8.17
	c-4.512,0-8.17,3.658-8.17,8.17v27.044c0,36.045-22.195,68.596-55.529,81.947c-32.533-13.015-55.586-44.845-55.586-81.981V282.71
	c0-0.024,0-1.621,0-1.621c0-28.994,14.051-54.764,35.693-70.866c0.608-0.327,1.165-0.724,1.66-1.182
	c14.392-10.202,31.943-16.224,50.885-16.224c48.655,0,88.238,39.598,88.238,88.272V407.387z"/>
<path d="M387.268,272.996h-10.894c-4.512,0-8.17,3.658-8.17,8.17s3.658,8.17,8.17,8.17h3.189c1.121,3.173,4.148,5.447,7.705,5.447
	c4.512,0,8.17-3.658,8.17-8.17v-5.447C395.438,276.654,391.78,272.996,387.268,272.996z"/>
<path d="M438.468,272.996h-10.894c-4.512,0-8.17,3.658-8.17,8.17v5.447c0,4.512,3.658,8.17,8.17,8.17
	c3.558,0,6.584-2.274,7.705-5.447h3.189c4.512,0,8.17-3.658,8.17-8.17S442.98,272.996,438.468,272.996z"/>
<path d="M407.421,209.269c-39.645,0-71.898,32.253-71.898,71.898v10.894c0,39.645,32.253,71.898,71.898,71.898
	s71.898-32.253,71.898-71.898v-10.894C479.319,241.521,447.066,209.269,407.421,209.269z M462.979,292.06
	c0,30.635-24.922,55.557-55.557,55.557s-55.557-24.922-55.557-55.557v-10.894c0-30.635,24.922-55.557,55.557-55.557
	s55.557,24.922,55.557,55.557V292.06z"/>
<g>
</g>
<g>
</g>
<g>
</g>
<g>
</g>
<g>
</g>
<g>
</g>
<g>
</g>
<g>
</g>
<g>
</g>
<g>
</g>
<g>
</g>
<g>
</g>
<g>
</g>
<g>
</g>
<g>
</g>
</svg>
