<?xml version="1.0" encoding="iso-8859-1"?>
<!-- Generator: Adobe Illustrator 19.0.0, SVG Export Plug-In . SVG Version: 6.00 Build 0)  -->
<svg version="1.1" id="Layer_1" xmlns="http://www.w3.org/2000/svg" xmlns:xlink="http://www.w3.org/1999/xlink" x="0px" y="0px"
	 viewBox="0 0 512 512" style="enable-background:new 0 0 512 512;" xml:space="preserve">
<g transform="translate(0 1)">
	<path style="fill:#FFA800;" d="M503.467,357.4V45.933c0-19.627-18.773-38.4-38.4-38.4h-25.6c19.627,0,38.4,18.773,38.4,38.4V357.4"
		/>
	<path style="fill:#FFE100;" d="M375.467,502.467L263.68,395.8c-40.107-40.107-40.107-104.96,0-145.067l0,0
		c40.107-40.107,104.96-40.107,145.067,0l94.72,98.133v60.587c0,51.2-41.813,93.013-93.013,93.013H375.467z"/>
	<path style="fill:#FFFFFF;" d="M34.133,331.8V45.933c0-19.627,19.627-38.4,39.253-38.4h-25.6c-19.627,0-39.253,18.773-39.253,38.4
		V331.8c0,19.627,19.627,34.133,39.253,34.133h25.6C53.76,365.933,34.133,351.427,34.133,331.8"/>
	<path style="fill:#FFE100;" d="M477.867,357.4V45.933c0-19.627-18.773-38.4-38.4-38.4H73.387c-19.627,0-39.253,18.773-39.253,38.4
		V331.8c0,19.627,19.627,34.133,39.253,34.133h97.28L477.867,357.4z"/>
	<g>
		<path style="fill:#FFA800;" d="M288.427,371.907l35.84,35.84c4.267,4.267,9.387,5.973,15.36,5.973
			c46.933-3.413,83.627-40.107,87.04-87.04c0-5.973-1.707-11.093-5.973-15.36l-35.84-35.84c-26.453-26.453-69.973-26.453-96.427,0
			l0,0C261.12,301.933,261.12,344.6,288.427,371.907"/>
		<path style="fill:#FFA800;" d="M315.733,109.933c0-14.507-11.093-25.6-25.6-25.6c-14.507,0-25.6,11.093-25.6,25.6
			s11.093,25.6,25.6,25.6C304.64,135.533,315.733,124.44,315.733,109.933"/>
		<path style="fill:#FFA800;" d="M221.867,186.733c0-14.507-11.093-25.6-25.6-25.6s-25.6,11.093-25.6,25.6
			c0,14.507,11.093,25.6,25.6,25.6S221.867,201.24,221.867,186.733"/>
		<path style="fill:#FFA800;" d="M288.427,371.907l35.84,35.84c4.267,4.267,9.387,5.973,15.36,5.973l0,0
			c46.933-3.413,83.627-40.107,87.04-87.04c0-5.973-1.707-11.093-5.973-15.36l-35.84-35.84c-26.453-26.453-69.973-26.453-96.427,0
			l0,0C261.973,301.933,261.973,344.6,288.427,371.907"/>
	</g>
	
		<rect x="205.653" y="139.815" transform="matrix(-0.7682 0.6402 -0.6402 -0.7682 517.4545 109.3438)" width="66.56" height="17.067"/>
	<path d="M412.16,511c-25.6,0-50.347-10.24-69.12-28.16l-85.333-81.067c-21.333-21.333-32.427-48.64-32.427-78.507
		s11.947-57.173,32.427-78.507s49.493-32.427,78.507-32.427c29.013,0,57.173,11.947,78.507,32.427l94.72,98.133
		c1.707,1.707,2.56,3.413,2.56,5.973v62.293C512,466.627,467.627,511,412.16,511z M336.213,229.4
		c-24.747,0-48.64,9.387-66.56,27.307c-17.92,17.92-27.307,40.96-27.307,66.56s9.387,48.64,27.307,66.56l84.48,81.067
		c15.36,14.507,35.84,23.04,57.173,23.04c45.227,0,82.773-37.547,82.773-82.773v-58.88l-91.307-95.573
		C384.853,238.787,361.813,229.4,336.213,229.4z"/>
	<path d="M337.92,421.4c-7.68,0-14.507-3.413-20.48-8.533l-35.84-35.84c-29.867-29.867-29.867-78.507,0-108.373
		s78.507-29.867,108.373,0l35.84,35.84c5.973,5.973,8.533,13.653,8.533,22.187c-3.413,50.347-44.373,91.307-94.72,94.72
		C339.627,421.4,338.773,421.4,337.92,421.4z M294.4,365.933l35.84,35.84c2.56,2.56,5.973,3.413,9.387,3.413
		c41.813-2.56,75.947-36.693,78.507-78.507c0-3.413-0.853-6.827-3.413-9.387L378.88,280.6c-23.04-23.04-61.44-23.04-84.48,0
		C270.507,304.493,270.507,342.04,294.4,365.933L294.4,365.933z"/>
	<path d="M337.92,417.987l-14.507-8.533c3.413-5.12,6.827-11.947,9.387-18.773c6.827-14.507,15.36-30.72,27.307-43.52
		c11.947-11.947,27.307-18.773,40.96-25.6c6.827-3.413,13.653-5.973,18.773-9.387l8.533,14.507
		c-6.827,4.267-13.653,7.68-20.48,10.24c-12.8,5.973-25.6,11.947-35.84,22.187c-10.24,10.24-17.92,24.747-24.747,39.253
		C344.747,405.187,341.333,412.013,337.92,417.987z"/>
	<path d="M290.133,144.067c-18.773,0-34.133-15.36-34.133-34.133S271.36,75.8,290.133,75.8c18.773,0,34.133,15.36,34.133,34.133
		S308.907,144.067,290.133,144.067z M290.133,92.867c-9.387,0-17.067,7.68-17.067,17.067S280.747,127,290.133,127
		c9.387,0,17.067-7.68,17.067-17.067S299.52,92.867,290.133,92.867z"/>
	<path d="M196.267,220.867c-18.773,0-34.133-15.36-34.133-34.133s15.36-34.133,34.133-34.133s34.133,15.36,34.133,34.133
		S215.04,220.867,196.267,220.867z M196.267,169.667c-9.387,0-17.067,7.68-17.067,17.067c0,9.387,7.68,17.067,17.067,17.067
		s17.067-7.68,17.067-17.067C213.333,177.347,205.653,169.667,196.267,169.667z"/>
	<path d="M238.933,237.933c-2.56,0-4.267-0.853-5.973-2.56l-17.067-17.067c-3.413-3.413-3.413-8.533,0-11.947s8.533-3.413,11.947,0
		l17.067,17.067c3.413,3.413,3.413,8.533,0,11.947C243.2,237.08,241.493,237.933,238.933,237.933z"/>
	<path d="M47.787,374.467C24.747,374.467,0,358.253,0,331.8v-51.2c0-5.12,3.413-8.533,8.533-8.533s8.533,3.413,8.533,8.533v51.2
		c0,15.36,16.213,25.6,30.72,25.6H230.4c-12.8-39.253-2.56-82.773,27.307-112.64c21.333-21.333,48.64-32.427,78.507-32.427
		c29.867,0,57.173,11.947,78.507,32.427l69.12,71.68c4.267,4.267,7.68,8.533,11.093,13.653V45.933
		c0-15.36-14.507-29.867-29.867-29.867H47.787c-15.36,0-30.72,14.507-30.72,29.867v166.4c0,5.12-3.413,8.533-8.533,8.533
		S0,217.453,0,212.333v-166.4C0,21.187,23.04-1,47.787-1h417.28C489.813-1,512,21.187,512,45.933v320l-16.213,4.267l-5.12-10.24
		c-4.267-11.947-10.24-23.04-18.773-31.573l-69.12-71.68c-17.92-17.92-40.96-27.307-66.56-27.307c-25.6,0-48.64,9.387-66.56,27.307
		c-27.307,27.307-34.987,69.973-18.773,104.96l5.12,11.947l-17.067,0.853H47.787z"/>
	<path d="M17.067,246.467c0-5.12-3.413-8.533-8.533-8.533S0,241.347,0,246.467C0,251.587,3.413,255,8.533,255
		S17.067,251.587,17.067,246.467"/>
</g>
<g>
</g>
<g>
</g>
<g>
</g>
<g>
</g>
<g>
</g>
<g>
</g>
<g>
</g>
<g>
</g>
<g>
</g>
<g>
</g>
<g>
</g>
<g>
</g>
<g>
</g>
<g>
</g>
<g>
</g>
</svg>
