<?xml version="1.0" encoding="UTF-8" standalone="no"?>
<!-- Created with Inkscape (http://www.inkscape.org/) -->

<svg
   xmlns:dc="http://purl.org/dc/elements/1.1/"
   xmlns:cc="http://creativecommons.org/ns#"
   xmlns:rdf="http://www.w3.org/1999/02/22-rdf-syntax-ns#"
   xmlns:svg="http://www.w3.org/2000/svg"
   xmlns="http://www.w3.org/2000/svg"
   xmlns:sodipodi="http://sodipodi.sourceforge.net/DTD/sodipodi-0.dtd"
   xmlns:inkscape="http://www.inkscape.org/namespaces/inkscape"
   width="70mm"
   height="70mm"
   viewBox="0 0 248.03149 248.03149"
   id="svg4526"
   version="1.1"
   inkscape:version="0.91 r13725"
   sodipodi:docname="user_share.svg">
  <defs
     id="defs4528">
    <clipPath
       id="clipPath2560"
       clipPathUnits="userSpaceOnUse">
      <path
         inkscape:connector-curvature="0"
         id="path2562"
         sodipodi:nodetypes="cccccc"
         style="color:#000000;fill:none;stroke:#ffffff;stroke-width:1.82509995;stroke-linecap:square"
         d="M 14.03,17.05 13.895,40.132 54.664,80.961 77.765,57.847 36.965,17.026 14.03,17.05 Z" />
    </clipPath>
  </defs>
  <sodipodi:namedview
     id="base"
     pagecolor="#ffffff"
     bordercolor="#666666"
     borderopacity="1.0"
     inkscape:pageopacity="0.0"
     inkscape:pageshadow="2"
     inkscape:zoom="1.979899"
     inkscape:cx="176.72143"
     inkscape:cy="43.695161"
     inkscape:document-units="px"
     inkscape:current-layer="layer1"
     showgrid="false"
     inkscape:window-width="1536"
     inkscape:window-height="801"
     inkscape:window-x="-8"
     inkscape:window-y="-8"
     inkscape:window-maximized="1" />
  <metadata
     id="metadata4531">
    <rdf:RDF>
      <cc:Work
         rdf:about="">
        <dc:format>image/svg+xml</dc:format>
        <dc:type
           rdf:resource="http://purl.org/dc/dcmitype/StillImage" />
        <dc:title></dc:title>
      </cc:Work>
    </rdf:RDF>
  </metadata>
  <g
     inkscape:label="Laag 1"
     inkscape:groupmode="layer"
     id="layer1"
     transform="translate(0,-804.33071)">
    <path
       style="opacity:1;fill:#030904;fill-opacity:1;fill-rule:nonzero;stroke:#000000;stroke-width:0.50507629;stroke-opacity:1"
       d="m 70.362525,1043.7272 c -2.2224,-0.2267 -4.7225,-0.6821 -5.5559,-1.012 -0.8334,-0.3299 -9.3384,-2.8569 -18.9001,-5.6157 -9.5617,-2.7588 -17.4523,-5.0834 -17.5347,-5.1657 -0.2391,-0.2392 2.2788,-42.51164 2.8639,-48.08141 2.2676,-21.58406 6.0483,-32.16101 14.8649,-41.58634 7.5909,-8.11487 14.9224,-11.77177 27.5448,-13.73911 5.5107,-0.85889 39.443295,-1.23111 47.620595,-0.52237 13.0001,1.12673 21.3056,3.10399 29.1231,6.93322 3.9457,1.93271 5.526,3.0883 9.1422,6.68524 9.4197,9.36932 13.7657,22.358 15.8544,47.38281 1.1656,13.96556 2.4884,42.59716 1.9903,43.07936 -0.9176,0.8884 -17.7367,5.5971 -23.3654,6.5414 -20.4406,3.4292 -70.257495,6.467 -83.648095,5.1006 z"
       id="path4293-4"
       inkscape:connector-curvature="0" />
    <ellipse
       style="opacity:1;fill:#000700;fill-opacity:1;fill-rule:nonzero;stroke:#000000;stroke-opacity:1"
       id="path4295-9"
       cx="100.90107"
       cy="884.11365"
       rx="40.658642"
       ry="38.327599" />
    <ellipse
       style="opacity:1;fill:#666666;fill-opacity:1;fill-rule:nonzero;stroke:#ffffff;stroke-width:7.51900005;stroke-miterlimit:4;stroke-dasharray:none;stroke-opacity:1"
       id="path4344-6"
       cx="188.8725"
       cy="959.41583"
       rx="52.857143"
       ry="50.714287" />
    <g
       id="layer1-1"
       transform="matrix(0.09680381,0,0,0.09543912,263.10461,969.6801)"
       style="fill:#ececec">
      <g
         id="g11676"
         transform="matrix(0,-17.254,17.254,0,10443,-2252.9)"
         style="fill:#ececec">
        <path
           inkscape:connector-curvature="0"
           id="path11666"
           d="m -134.38,309.5 c 0,4.1683 -3.3791,7.5474 -7.5474,7.5474 -4.1683,0 -7.5474,-3.3791 -7.5474,-7.5474 0,-4.1683 3.3791,-7.5474 7.5474,-7.5474 4.1683,0 7.5474,3.3791 7.5474,7.5474 z"
           style="color:#000000;fill:#ececec"
           transform="translate(1.1045,-949.48)" />
        <path
           inkscape:connector-curvature="0"
           id="path11668"
           d="m -134.38,309.5 c 0,4.1683 -3.3791,7.5474 -7.5474,7.5474 -4.1683,0 -7.5474,-3.3791 -7.5474,-7.5474 0,-4.1683 3.3791,-7.5474 7.5474,-7.5474 4.1683,0 7.5474,3.3791 7.5474,7.5474 z"
           style="color:#000000;fill:#ececec"
           transform="translate(32.767,-949.48)" />
        <path
           inkscape:connector-curvature="0"
           id="path11670"
           d="m -134.38,309.5 c 0,4.1683 -3.3791,7.5474 -7.5474,7.5474 -4.1683,0 -7.5474,-3.3791 -7.5474,-7.5474 0,-4.1683 3.3791,-7.5474 7.5474,-7.5474 4.1683,0 7.5474,3.3791 7.5474,7.5474 z"
           style="color:#000000;fill:#ececec"
           transform="translate(16.936,-976.35)" />
        <rect
           id="rect11672"
           style="color:#000000;fill:#ececec"
           transform="matrix(0.49998488,-0.86603413,0.86603413,0.49998488,0,0)"
           height="3"
           width="27.691999"
           y="-443.73001"
           x="488.22" />
        <rect
           id="rect11674"
           style="color:#000000;fill:#ececec"
           transform="matrix(-0.5,-0.86603,-0.86603,0.5,0,0)"
           height="3"
           width="27.691999"
           y="-226.89999"
           x="613.15997" />
      </g>
    </g>
  </g>
</svg>
